#!OML:ASF X:\für Bonn\!DataBase\2005_08_12_Daniel\c3d\Daniel.ASF
:FULLY-SPECIFIED
:DEGREES
2417
root -4.76965 16.8266 -3.40376 328.603 -86.1864 -337.337
lowerback 13.4871 -0.945422 0.029073
upperback 4.4639 -1.48001 -1.14155
thorax -2.8952 -0.811542 -0.970581
lowerneck -0.407513 1.55853 -5.70745
upperneck 6.5994 2.23757 -2.06418
head 2.09999 0.880539 0.354609
rclavicle -2.91965e-015 -5.06901e-015
rhumerus -43.7262 -31.2733 -59.239
rradius 10.5502
rwrist 47.5746
rhand -17.1018 17.3207
rfingers 7.12502
rthumb 9.13712 -12.4614
lclavicle -2.91965e-015 -5.06901e-015
lhumerus -69.7118 47.6608 34.049
lradius 18.4768
lwrist -23.8456
lhand -12.5591 0.501541
lfingers 7.12502
lthumb 13.5182 30.0428
rfemur 6.52654 39.6474 34.5739
rtibia 34.5341
rfoot -62.9358 -29.1891
rtoes -1.6874
lfemur -11.0036 -18.059 -14.356
ltibia 43.2952
lfoot -23.9667 1.68651
ltoes -5.55145
2418
root -4.77013 16.821 -3.38267 329.945 -86.0969 -338.584
lowerback 13.4544 -0.989095 0.0517242
upperback 4.39399 -1.53046 -1.12646
thorax -2.95176 -0.834988 -0.959475
lowerneck -0.405967 1.52965 -5.91374
upperneck 6.42428 2.19029 -1.86515
head 2.03986 0.863899 0.450289
rclavicle -2.19906e-015 6.06293e-015
rhumerus -43.4926 -30.5493 -59.7373
rradius 10.7423
rwrist 46.1456
rhand -17.2408 17.2006
rfingers 7.12502
rthumb 9.00296 -12.5873
lclavicle -2.19906e-015 6.06293e-015
lhumerus -69.1754 47.6662 34.3415
lradius 18.5275
lwrist -23.8301
lhand -12.6024 0.694991
lfingers 7.12502
lthumb 13.4764 30.239
rfemur 6.58356 40.1147 34.7689
rtibia 34.6228
rfoot -63.6059 -29.2451
rtoes -1.58243
lfemur -10.8831 -18.3552 -14.4189
ltibia 42.9933
lfoot -24.3631 1.7412
ltoes -5.21287
2419
root -4.76977 16.818 -3.36161 330.762 -85.9792 -339.322
lowerback 13.4426 -1.03001 0.00250149
upperback 4.3362 -1.58712 -1.10104
thorax -3.00494 -0.862002 -0.895799
lowerneck -0.407046 1.49877 -6.07841
upperneck 6.23799 2.14355 -1.75353
head 1.97811 0.846402 0.511242
rclavicle 1.28713e-014 6.75868e-015
rhumerus -43.214 -29.7412 -60.3182
rradius 10.9909
rwrist 44.5563
rhand -17.3612 17.0968
rfingers 7.12502
rthumb 8.8868 -12.6961
lclavicle 1.28713e-014 6.75868e-015
lhumerus -68.6648 47.7339 34.6353
lradius 18.6174
lwrist -23.9272
lhand -12.5586 0.888923
lfingers 7.12502
lthumb 13.5186 30.4301
rfemur 6.62294 40.4027 34.8242
rtibia 34.6414
rfoot -64.0831 -29.2232
rtoes -1.40232
lfemur -10.7566 -18.5006 -14.4955
ltibia 42.6678
lfoot -24.6694 1.64547
ltoes -4.78168
2420
root -4.76967 16.8199 -3.33976 331.594 -85.8463 -340.095
lowerback 13.4401 -1.08363 -0.045324
upperback 4.28906 -1.66094 -1.07507
thorax -3.05209 -0.897703 -0.829534
lowerneck -0.393968 1.47375 -6.31714
upperneck 6.03965 2.10165 -1.57563
head 1.90922 0.831765 0.605511
rclavicle -2.73329e-016 -7.95139e-016
rhumerus -42.8343 -28.6549 -61.1583
rradius 11.2919
rwrist 42.6556
rhand -17.5317 16.951
rfingers 7.12502
rthumb 8.72226 -12.8488
lclavicle -2.73329e-016 -7.95139e-016
lhumerus -68.0284 47.7603 35.1228
lradius 18.7628
lwrist -23.9253
lhand -12.4757 1.09766
lfingers 7.12502
lthumb 13.5986 30.6335
rfemur 6.65616 40.5141 34.7832
rtibia 34.5788
rfoot -64.3363 -29.256
rtoes -1.39875
lfemur -10.6273 -18.4925 -14.5501
ltibia 42.3245
lfoot -24.8674 1.42602
ltoes -4.35975
2421
root -4.76826 16.8263 -3.31751 331.996 -85.6996 -340.43
lowerback 13.4242 -1.13353 -0.114944
upperback 4.24656 -1.73413 -1.08004
thorax -3.08732 -0.933086 -0.783658
lowerneck -0.330853 1.44858 -6.46578
upperneck 5.81962 2.05487 -1.42884
head 1.82576 0.817038 0.673849
rclavicle 4.22417e-015 -1.98785e-015
rhumerus -42.5574 -27.7919 -61.8646
rradius 11.6051
rwrist 40.9905
rhand -17.7078 16.874
rfingers 7.12502
rthumb 8.55233 -12.9328
lclavicle 4.22417e-015 -1.98785e-015
lhumerus -67.232 47.7299 35.7725
lradius 18.9434
lwrist -23.8858
lhand -12.3627 1.26639
lfingers 7.12502
lthumb 13.7075 30.7949
rfemur 6.58139 40.3457 34.5095
rtibia 34.4411
rfoot -64.2671 -29.1873
rtoes -1.29657
lfemur -10.5176 -18.3236 -14.602
ltibia 41.9525
lfoot -24.9328 1.09845
ltoes -4.01977
2422
root -4.76635 16.8352 -3.29502 332.128 -85.5312 -340.524
lowerback 13.4389 -1.18219 -0.232164
upperback 4.21652 -1.81262 -1.0762
thorax -3.1243 -0.971445 -0.700394
lowerneck -0.239196 1.42526 -6.60313
upperneck 5.56502 2.00856 -1.31778
head 1.72692 0.803051 0.728315
rclavicle -5.8393e-016 -2.68359e-015
rhumerus -42.2107 -26.7924 -62.6908
rradius 11.9179
rwrist 39.0912
rhand -17.9865 16.8038
rfingers 7.12502
rthumb 8.28332 -13.0138
lclavicle -5.8393e-016 -2.68359e-015
lhumerus -66.3997 47.6923 36.5343
lradius 19.1953
lwrist -23.8126
lhand -12.1921 1.47099
lfingers 7.12502
lthumb 13.8718 30.9884
rfemur 6.47149 39.8974 34.0753
rtibia 34.2303
rfoot -63.8385 -29.1629
rtoes -1.43031
lfemur -10.366 -18.1647 -14.6933
ltibia 41.5538
lfoot -24.9055 0.753417
ltoes -3.58314
2423
root -4.76504 16.8475 -3.27159 332.118 -85.3748 -340.47
lowerback 13.4316 -1.22586 -0.34196
upperback 4.19487 -1.88416 -1.08649
thorax -3.14084 -1.00641 -0.637753
lowerneck -0.141835 1.40074 -6.7471
upperneck 5.30078 1.95885 -1.16903
head 1.62436 0.788473 0.795707
rclavicle 3.73591e-014 -1.98785e-016
rhumerus -41.9103 -26.0143 -63.3787
rradius 12.1568
rwrist 37.4218
rhand -18.3864 16.8151
rfingers 7.12502
rthumb 7.89739 -13.0174
lclavicle 3.73591e-014 -1.98785e-016
lhumerus -65.3644 47.5765 37.5395
lradius 19.4604
lwrist -23.6557
lhand -12.0723 1.68677
lfingers 7.12502
lthumb 13.9874 31.1962
rfemur 6.28982 39.2386 33.4837
rtibia 33.9637
rfoot -63.1713 -29.0314
rtoes -1.55908
lfemur -10.2074 -17.9196 -14.7848
ltibia 41.1176
lfoot -24.811 0.400662
ltoes -3.2989
2424
root -4.76263 16.8624 -3.24821 331.75 -85.1913 -340.082
lowerback 13.4685 -1.27564 -0.520215
upperback 4.18517 -1.97371 -1.08504
thorax -3.16603 -1.0507 -0.520533
lowerneck -0.117269 1.37355 -6.8967
upperneck 5.06775 1.91436 -1.0666
head 1.54524 0.773854 0.850719
rclavicle -1.63997e-014 -1.59028e-015
rhumerus -41.5816 -25.3797 -63.9513
rradius 12.3169
rwrist 35.8911
rhand -18.862 16.8464
rfingers 7.12502
rthumb 7.43836 -13.0028
lclavicle -1.63997e-014 -1.59028e-015
lhumerus -64.2093 47.4033 38.721
lradius 19.7196
lwrist -23.4433
lhand -11.9715 1.88437
lfingers 7.12502
lthumb 14.0845 31.3871
rfemur 6.10663 38.4193 32.792
rtibia 33.6494
rfoot -62.2795 -28.9751
rtoes -1.76514
lfemur -10.0257 -17.6326 -14.9131
ltibia 40.6575
lfoot -24.655 0.0199526
ltoes -3.15704
2425
root -4.75993 16.88 -3.22305 331.244 -84.9917 -339.564
lowerback 13.5313 -1.32575 -0.698522
upperback 4.16628 -2.06524 -1.10685
thorax -3.21516 -1.0957 -0.426312
lowerneck -0.0422906 1.35456 -7.00154
upperneck 4.822 1.87532 -0.951838
head 1.45357 0.763724 0.901429
rclavicle -3.34952e-014 -9.24349e-015
rhumerus -41.2277 -24.5679 -64.6918
rradius 12.4966
rwrist 34.0621
rhand -19.3435 16.8845
rfingers 7.12502
rthumb 6.97361 -12.9806
lclavicle -3.34952e-014 -9.24349e-015
lhumerus -62.919 47.1205 40.0653
lradius 19.991
lwrist -23.1464
lhand -11.8958 1.99678
lfingers 7.12502
lthumb 14.1574 31.4944
rfemur 5.85118 37.2928 31.9207
rtibia 33.2988
rfoot -61.0275 -28.8579
rtoes -2.00449
lfemur -9.82913 -17.2669 -15.0555
ltibia 40.1685
lfoot -24.4118 -0.39988
ltoes -3.0007
2426
root -4.75686 16.899 -3.19625 330.829 -84.7891 -339.155
lowerback 13.608 -1.39019 -0.887222
upperback 4.16697 -2.17772 -1.11428
thorax -3.24986 -1.15151 -0.307685
lowerneck -0.0364353 1.33406 -7.09535
upperneck 4.59838 1.84233 -0.883493
head 1.38145 0.754794 0.936716
rclavicle 3.36692e-015 -1.78906e-015
rhumerus -40.8503 -23.8654 -65.3637
rradius 12.6513
rwrist 32.3465
rhand -19.8555 16.957
rfingers 7.12502
rthumb 6.47935 -12.9239
lclavicle 3.36692e-015 -1.78906e-015
lhumerus -61.4825 46.7142 41.6546
lradius 20.3008
lwrist -22.7182
lhand -11.831 2.04212
lfingers 7.12502
lthumb 14.2198 31.5354
rfemur 5.60601 36.0595 31.02
rtibia 32.9259
rfoot -59.6652 -28.7354
rtoes -2.36964
lfemur -9.60669 -16.9031 -15.2102
ltibia 39.665
lfoot -24.144 -0.782218
ltoes -2.94014
2427
root -4.75368 16.9191 -3.16698 330.074 -84.5859 -338.407
lowerback 13.698 -1.45271 -1.09759
upperback 4.15983 -2.29166 -1.13326
thorax -3.29881 -1.20778 -0.187955
lowerneck -0.0165146 1.3294 -7.22335
upperneck 4.36504 1.82821 -0.777775
head 1.30308 0.755731 0.989713
rclavicle -6.55989e-015 1.68967e-015
rhumerus -40.4461 -23.0675 -66.1221
rradius 12.8167
rwrist 30.5581
rhand -20.3093 16.9723
rfingers 7.12502
rthumb 6.04117 -12.9216
lclavicle -6.55989e-015 1.68967e-015
lhumerus -60.0669 46.2807 43.2007
lradius 20.5909
lwrist -22.3291
lhand -11.843 1.95929
lfingers 7.12502
lthumb 14.2083 31.4533
rfemur 5.31115 34.5677 29.9611
rtibia 32.5385
rfoot -58.0486 -28.4715
rtoes -2.80648
lfemur -9.35683 -16.6096 -15.4263
ltibia 39.145
lfoot -23.9026 -1.11579
ltoes -2.84169
